<svg width="67" height="56" viewBox="0 0 67 56" fill="none" xmlns="http://www.w3.org/2000/svg">
<path d="M1.7688 2.04058L0 3.99132V8.40758L1.5812 9.81644L3.1624 11.1982H13.936V13.6366H4.824V12.9593C4.824 12.282 4.7972 12.282 2.412 12.282H0V17.4297H1.8492C3.5376 17.4297 3.7252 17.3756 4.154 16.7253L4.6096 16.0209L5.3332 16.7253L6.0568 17.4297H18.1704L19.8052 15.7228L21.44 14.043V9.70807L19.7248 8.13664L17.9828 6.59231H7.504V3.88295H15.544V5.50856H20.368V0.0898438H18.6528C17.0716 0.0898438 16.884 0.144031 16.4016 0.821371L15.8388 1.57999L15.0884 0.821371L14.3112 0.0898438H3.5376L1.7688 2.04058ZM22.78 2.3928V4.69576H24.656V13.7992L26.4784 15.6145L28.3008 17.4297H39.0208L40.8164 15.5874L42.612 13.745V4.69576H44.22V0.0898438H35.912V2.3928C35.912 4.66866 35.912 4.69576 36.582 4.69576H37.252V13.0948H31.624V4.69576H33.232V0.0898438H22.78V2.3928ZM45.56 2.3928V4.69576H47.436V13.0948H45.56V17.4297H56.28V13.0948H55.342C54.404 13.0948 54.404 13.0948 54.404 11.8756V10.6563H64.4808L65.7404 9.35585L67 8.05536V3.17851L65.4456 1.63418L63.8912 0.0898438H45.56V2.3928ZM60.2464 6.10462L60.166 7.54058L57.2984 7.62186L54.404 7.70314V4.69576H60.3268L60.2464 6.10462ZM0 21.0874V23.3903H1.876V31.7894H0V36.3953H19.4568L20.4484 35.3657L21.44 34.3361V28.2672H16.08V31.7894H8.844V29.08H11.926L11.8456 27.4544L11.7384 25.8288H8.844V23.3903H16.08V26.9125H21.44V20.7894L20.4216 19.7869L19.4032 18.7844H0V21.0874ZM47.9184 20.979L45.56 23.1736V31.979L47.9452 34.2007L50.3299 36.3953H63.1403L65.0699 34.4174L66.9995 32.4667V28.8091H61.6395V31.7894H52.5275V23.3903H61.6395V26.0997H66.9995V18.7844H65.0163C63.1135 18.7844 63.0063 18.8386 62.3363 19.6243L61.6395 20.4642L60.9427 19.6243L60.2464 18.7844H50.25L47.9184 20.979ZM0 39.9174V42.0849H1.876V50.7549H0V55.0898H19.698L20.5824 54.0061C21.44 52.9765 21.44 52.9495 21.44 49.9692V46.9618H16.08V50.7549H8.844V48.0455H11.792V44.7943H8.844V42.0849H16.08V45.878H21.44V42.8706C21.44 39.8903 21.44 39.8627 20.5824 38.8337L19.698 37.7499H0V39.9174ZM22.78 39.8903V42.0578L23.6644 42.1391L24.522 42.2204L24.6024 46.4741L24.6828 50.7549H22.78V55.0898H42.5316L43.3624 54.0332L44.22 52.9495V45.0652H38.86V50.7549H31.624V42.0849H33.5V37.7499H22.78V39.8903ZM45.56 39.8903V42.0578L46.4444 42.1391L47.302 42.2204L47.3824 46.4741L47.4628 50.7549H45.56V55.0898H65.3116L66.1424 54.0332L67 52.9495V45.0652H61.64V50.7549H54.404V42.0849H56.28V37.7499H45.56V39.8903ZM44.1664 34.4174C44.086 32.5209 44.0595 32.4667 43.3624 32.3854C42.6388 32.3041 42.612 32.2226 42.612 30.7324C42.612 29.1884 42.612 29.1607 41.3524 28.2666L40.1196 27.3455L41.1645 26.4514C41.7276 25.9637 42.2899 25.5573 42.4239 25.5573C42.5311 25.5573 42.6115 24.6632 42.6115 23.5794V21.6016L41.1911 20.1927L39.7704 18.7839H22.78V23.3903H24.656V31.7894H22.78V36.3953H32.964V34.0923C32.964 31.8164 32.964 31.7894 32.294 31.7894C31.6776 31.7894 31.624 31.7081 31.624 30.4347V29.08H35.376V34.3903L36.3944 35.3928L37.4128 36.3953H44.2468L44.1664 34.4174ZM35.376 26.2861H31.624V23.4919H35.376V26.2861Z" fill="white"/>
</svg>
