<?xml version="1.0" encoding="utf-8"?>
<!-- Generator: Adobe Illustrator 27.0.0, SVG Export Plug-In . SVG Version: 6.00 Build 0)  -->
<svg version="1.1" id="Layer_1" xmlns="http://www.w3.org/2000/svg" xmlns:xlink="http://www.w3.org/1999/xlink" x="0px" y="0px"
	 viewBox="0 0 17.7 25.2" style="enable-background:new 0 0 17.7 25.2;" xml:space="preserve">
<style type="text/css">
	.st0{fill:#FFFFFF;}
</style>
<g id="Layer_2_copy">
	<g>
		<path d="M16.8,15.8l-2.5-3.1l2-2.6c0.4-0.5,0.6-2.4,0.7-3.4c0.1-0.6-0.1-1.3-0.5-1.9l-2.1-3.3c-0.5-0.8-1.3-1.3-2.2-1.4
			C11.3,0,10.4,0.4,9.8,1L1,9.8c-0.5,0.4-0.8,1.2-0.9,1.9c-0.1,0.3,0,1.6,0,2.3c0.1,0.9,0.5,1.7,1.1,2.2l9.8,8.3
			c0.5,0.5,1.2,0.7,1.9,0.7c0.1,0,0.3,0,0.5-0.1c0.4-0.1,1.6-0.6,2-1.3c0.4-0.6,1.4-2.6,1.4-2.6c0.4-0.9,0.6-1.6,0.7-2.6
			C17.6,17.6,17.4,16.6,16.8,15.8z"/>
		<path class="st0" d="M2.5,12.7l9.7,8.2c0.5,0.4,1.2,0.3,1.5-0.2l1.6-2.5c0.2-0.4,0.2-0.8-0.1-1.2l-3.7-4.5c-0.3-0.4-0.3-0.9,0-1.2
			l3.3-4.4c0.3-0.3,0.3-0.8,0-1.1l-2.1-3.3c-0.3-0.5-1.1-0.6-1.6-0.2l-8.8,8.8C2,11.6,2.1,12.3,2.5,12.7z"/>
	</g>
</g>
</svg>
