<svg class="back-button" width="60" height="48" viewBox="0 0 60 48" fill="none" xmlns="http://www.w3.org/2000/svg">
  <g filter="url(#filter0_d_920_61302)">
    <path d="M0.99992 2V1H1.99992H57.6133H58.6794L58.6112 2.06397L56.1759 40.0592C56.0398 42.1815 54.2788 43.8333 52.152 43.8333H1.99992H0.99992V42.8333V2Z" fill="#3A4159" stroke="black" stroke-width="2" />
    <mask id="mask0_920_61302" style="mask-type: alpha" maskUnits="userSpaceOnUse" x="2" y="2" width="56" height="41">
      <path d="M1.99992 2H57.6133L55.1779 39.9952C55.0756 41.5912 53.7513 42.8333 52.152 42.8333H1.99992V2Z" fill="#C4C4C4" />
    </mask>
    <g mask="url(#mask0_920_61302)">
      <path d="M59 2H2V6H59V2Z" fill="#4C5471" />
      <rect width="61" height="4" transform="matrix(-1 0 0 1 59 39)" fill="#34334C" />
    </g>
    <g filter="url(#filter1_d_920_61302)">
      <path d="M22.1926 20.4895L31.6332 11.9057C32.1008 11.4806 32.8406 11.5904 33.1645 12.1329L34.7082 14.7183C34.9179 15.0695 34.8926 15.513 34.6443 15.838L31.0171 20.5858C30.7516 20.9333 30.7427 21.413 30.9952 21.7701L34.286 26.4253C34.5146 26.7487 34.5309 27.1764 34.3275 27.5162L32.2774 30.941C31.9353 31.5125 31.1407 31.5962 30.6871 31.1084L22.133 21.9104C21.7539 21.5028 21.7807 20.864 22.1926 20.4895Z" fill="white" />
      <path d="M21.5199 19.7496L22.1926 20.4895L21.5199 19.7496C20.6961 20.4986 20.6426 21.7761 21.4008 22.5914L29.9548 31.7894C30.862 32.7649 32.4513 32.5976 33.1354 31.4546L35.1855 28.0298C35.5923 27.3503 35.5598 26.4948 35.1026 25.8481L31.8117 21.1928L35.4389 16.4451C35.9355 15.795 35.9862 14.908 35.5668 14.2056L34.0231 11.6203C33.3752 10.5351 31.8956 10.3156 30.9605 11.1658L21.5199 19.7496Z" stroke="black" stroke-width="2" />
    </g>
  </g>
  <defs>
    <filter id="filter0_d_920_61302" x="0" y="0" width="60" height="48" filterUnits="userSpaceOnUse" color-interpolation-filters="sRGB">
      <feFlood flood-opacity="0" result="BackgroundImageFix" />
      <feColorMatrix in="SourceAlpha" type="matrix" values="0 0 0 0 0 0 0 0 0 0 0 0 0 0 0 0 0 0 127 0" result="hardAlpha" />
      <feOffset dy="3" />
      <feComposite in2="hardAlpha" operator="out" />
      <feColorMatrix type="matrix" values="0 0 0 0 0 0 0 0 0 0 0 0 0 0 0 0 0 0 0.25 0" />
      <feBlend mode="normal" in2="BackgroundImageFix" result="effect1_dropShadow_920_61302" />
      <feBlend mode="normal" in="SourceGraphic" in2="effect1_dropShadow_920_61302" result="shape" />
    </filter>
    <filter id="filter1_d_920_61302" x="19.8652" y="9.64526" width="16.9844" height="25.7825" filterUnits="userSpaceOnUse" color-interpolation-filters="sRGB">
      <feFlood flood-opacity="0" result="BackgroundImageFix" />
      <feColorMatrix in="SourceAlpha" type="matrix" values="0 0 0 0 0 0 0 0 0 0 0 0 0 0 0 0 0 0 127 0" result="hardAlpha" />
      <feOffset dy="2" />
      <feColorMatrix type="matrix" values="0 0 0 0 0 0 0 0 0 0 0 0 0 0 0 0 0 0 1 0" />
      <feBlend mode="normal" in2="BackgroundImageFix" result="effect1_dropShadow_920_61302" />
      <feBlend mode="normal" in="SourceGraphic" in2="effect1_dropShadow_920_61302" result="shape" />
    </filter>
  </defs>
</svg>