<svg width="100%" height="100%" xmlns="http://www.w3.org/2000/svg" viewBox="0 0 40.8 46.2">
  <ellipse cx="20.3" cy="25.4" rx="19.2" ry="20.2" opacity=".25" />
  <ellipse cx="20.3" cy="22.5" rx="19.2" ry="19.4" />
  <circle cx="20.3" cy="20.5" r="18.5" fill="#3a4159" stroke="#000" stroke-width="3" />
  <linearGradient id="A" gradientUnits="userSpaceOnUse" x1="20.235" y1="2.675" x2="20.235" y2="38.463">
    <stop offset="0" stop-color="#4c5673" />
    <stop offset=".999" stop-color="#36324d" />
  </linearGradient>
  <path d="M20.2 4.4c8.9 0 16.1 7.2 16.1 16.1s-7.2 16.1-16.1 16.1-16.1-7.1-16.1-16S11.3 4.4 20.2 4.4m0-1.7c-9.9 0-17.9 8-17.9 17.9s8 17.9 17.9 17.9 17.9-8 17.9-17.9-8-17.9-17.9-17.9h0z" fill="url(#A)" />
  <path d="M31 17.3c0-.7-.1-1.6-.6-2.2l-2.7-3c-.5-.5-1.2-.9-1.9-.9-.6 0-1.2.2-1.6.6l-3 2.5-2.9-2.9c-.5-.5-1.1-.8-1.8-.8s-1.3.3-1.8.7l-3.6 3.5c-.6.6-.8 1.4-.9 2.3 0 .9.2 1.7.8 2.3l1.6 1.6-1.7 1.5c-.5.5-.8 1.1-.8 1.8v1c0 .7.2 1.4.7 1.8l3.4 3.4c.5.5 1.1.7 1.8.7.6 0 1.2-.2 1.6-.6l2.2-1.9 2.4 2.4c.5.5 1.1.7 1.8.7.6 0 1.1-.2 1.6-.6l4-3.3c.6-.4.9-1.1.9-1.8v-.6-.4c0-.7-.2-1.4-.7-1.9L28 21.4l2-1.8c.9-.5 1-1.5 1-2.3z" />
  <path d="M12.4 15.8l3.6-3.5c.4-.4 1-.4 1.4 0l3.2 3.3a1.07 1.07 0 0 0 1.4.1l3.3-2.8c.4-.4 1-.3 1.4.1l2.7 3a.97.97 0 0 1-.1 1.4l-3 2.6c-.4.4-.5 1.1 0 1.5l2.7 2.7c.4.4.4 1.1-.1 1.5l-4 3.3a1.07 1.07 0 0 1-1.4-.1l-2.7-2.7c-.4-.4-1-.4-1.4 0l-2.6 2.2c-.4.3-1 .3-1.4 0L12 25a1.09 1.09 0 0 1 0-1.5l2.6-2.3c.4-.4.4-1 0-1.5l-2.4-2.5c-.2-.4-.2-1.1.2-1.4z" fill="#fff" />
</svg>