<svg width="100%" height="100%" xmlns="http://www.w3.org/2000/svg" viewBox="0 0 41 46.2">
  <ellipse cx="20.4" cy="25.4" rx="19.2" ry="20.2" opacity=".25" />
  <ellipse cx="20.5" cy="22.5" rx="19.2" ry="19.4" />
  <circle cx="20.4" cy="20.5" r="18.5" fill="#3a4159" stroke="#000" stroke-width="3" />
  <linearGradient id="A" gradientUnits="userSpaceOnUse" x1="20.394" y1="2.675" x2="20.394" y2="38.463">
    <stop offset="0" stop-color="#4c5673" />
    <stop offset=".999" stop-color="#36324d" />
  </linearGradient>
  <path d="M20.4 4.4c8.9 0 16.1 7.2 16.1 16.1s-7.2 16.1-16.1 16.1-16.1-7.1-16.1-16S11.5 4.4 20.4 4.4m0-1.7c-9.9 0-17.9 8-17.9 17.9s8 17.9 17.9 17.9 17.9-8 17.9-17.9-8-17.9-17.9-17.9h0z" fill="url(#A)" />
  <path d="M27.7 21.6h-2.4l1.4-1.3c.6-.6.8-1.5.5-2.2-.3-.8-1.1-1.3-2-1.3H24v-3.6a2.22 2.22 0 0 0-2.2-2.2h-2.5a2.22 2.22 0 0 0-2.2 2.2v3.6h-1.2c-.9 0-1.6.5-2 1.3-.3.8-.1 1.6.5 2.2l1.4 1.3h-2.4a2.22 2.22 0 0 0-2.2 2.2v3.4a2.22 2.22 0 0 0 2.2 2.2h14.5a2.22 2.22 0 0 0 2.2-2.2v-3.4c-.2-1.2-1.2-2.2-2.4-2.2z" />
  <path d="M27.7 21h-2.4l1.4-1.4c.6-.6.8-1.5.5-2.3s-1.1-1.3-2-1.3H24v-3.8a2.22 2.22 0 0 0-2.2-2.2h-2.5a2.22 2.22 0 0 0-2.2 2.2V16h-1.2c-.9 0-1.6.5-2 1.3-.3.8-.1 1.7.5 2.3l1.4 1.4h-2.4a2.22 2.22 0 0 0-2.2 2.2v3.5a2.22 2.22 0 0 0 2.2 2.2h14.5a2.22 2.22 0 0 0 2.2-2.2v-3.5c-.2-1.2-1.2-2.2-2.4-2.2z" />
  <path d="M19.2 11.5h2.5c.4 0 .8.3.8.8v5.2h2.7c.6 0 .8.7.4 1.1l-4.8 4.8c-.2.2-.6.2-.9 0l-4.8-4.8c-.4-.4-.1-1.1.4-1.1h2.7v-5.2c.2-.5.6-.8 1-.8zm9.2 11.7v3.5c0 .4-.3.8-.8.8H13.2c-.4 0-.8-.3-.8-.8v-3.5c0-.4.3-.8.8-.8h4.6l1.5 1.5c.6.6 1.6.6 2.3 0l1.5-1.5h4.6c.4.1.7.4.7.8z" fill="#fff" />
</svg>