<svg width="100%" height="100%" viewBox="0 0 21 16" fill="none" xmlns="http://www.w3.org/2000/svg">
  <path d="M10.3057 11.9998C9.59365 11.9998 8.89763 11.7887 8.30561 11.3931C7.71359 10.9975 7.25217 10.4353 6.9797 9.77747C6.70722 9.11965 6.63593 8.39581 6.77484 7.69748C6.91374 6.99915 7.25661 6.35769 7.76008 5.85422C8.26355 5.35075 8.90501 5.00788 9.60334 4.86898C10.3017 4.73007 11.0255 4.80136 11.6833 5.07384C12.3411 5.34631 12.9034 5.80773 13.299 6.39975C13.6945 6.99177 13.9057 7.68779 13.9057 8.3998C13.9057 9.35458 13.5264 10.2703 12.8512 10.9454C12.1761 11.6205 11.2604 11.9998 10.3057 11.9998V11.9998ZM10.3057 2.7998C4.70566 2.7998 2.30566 8.3998 2.30566 8.3998C2.30566 8.3998 4.70566 13.9998 10.3057 13.9998C15.9057 13.9998 18.3057 8.3998 18.3057 8.3998C18.3057 8.3998 15.9057 2.7998 10.3057 2.7998Z" fill="white" />
  <path d="M0.864961 8.26718L0.86452 8.26821L0.661933 8.74091L0.63661 8.8L0.661933 8.85909L0.86452 9.33179L0.864961 9.33282L0.865015 9.33295L0.865491 9.33405L0.865569 9.33423L0.923608 9.46966L0.926494 9.46843C0.948924 9.51613 0.977374 9.57521 1.01195 9.64436C1.10153 9.82352 1.23284 10.0715 1.40782 10.3655C1.75627 10.9509 2.28625 11.7326 3.01609 12.5186C4.4749 14.0896 6.80829 15.75 10.1054 15.75C13.4024 15.75 15.7358 14.0896 17.1946 12.5186C17.9245 11.7326 18.4545 10.9509 18.8029 10.3655C18.9779 10.0715 19.1092 9.82352 19.1988 9.64436C19.2334 9.57521 19.2618 9.51613 19.2842 9.46843L19.2871 9.46966L19.3439 9.33716L19.3441 9.33681L19.3456 9.3331L19.3458 9.33273L19.3462 9.33179L19.5488 8.85909L19.5741 8.8L19.5488 8.74091L19.3462 8.26821L19.3458 8.26727L19.3457 8.26691L19.3441 8.2632L19.3439 8.26283L19.2871 8.13034L19.2842 8.13157C19.2618 8.08387 19.2334 8.02479 19.1988 7.95564C19.1092 7.77648 18.9779 7.52847 18.8029 7.2345C18.4545 6.64911 17.9245 5.86737 17.1946 5.08139C15.7358 3.51037 13.4024 1.85 10.1054 1.85C6.80829 1.85 4.4749 3.51037 3.01609 5.08139C2.28625 5.86737 1.75627 6.64911 1.40782 7.2345C1.23284 7.52847 1.10153 7.77648 1.01195 7.95564C0.977374 8.02479 0.948923 8.08387 0.926494 8.13157L0.923608 8.13034L0.865565 8.26578L0.865482 8.26597L0.865006 8.26708L0.864961 8.26718ZM17.9409 8.80001C17.9225 8.83968 17.8947 8.89844 17.8571 8.97354C17.782 9.12378 17.6681 9.33927 17.514 9.59828C17.2055 10.1166 16.7366 10.8075 16.0954 11.4979C14.8131 12.8789 12.8501 14.25 10.1054 14.25C7.36059 14.25 5.39763 12.8789 4.11528 11.4979C3.47416 10.8075 3.00527 10.1166 2.69676 9.59828C2.54259 9.33927 2.42871 9.12378 2.35359 8.97354C2.31604 8.89844 2.2882 8.83969 2.26987 8.8C2.2882 8.76031 2.31604 8.70156 2.35359 8.62646C2.42871 8.47622 2.54259 8.26073 2.69676 8.00172C3.00527 7.48343 3.47416 6.79251 4.11528 6.10207C5.39763 4.72108 7.36059 3.35 10.1054 3.35C12.8501 3.35 14.8131 4.72108 16.0954 6.10207C16.7366 6.79251 17.2055 7.48343 17.514 8.00172C17.6681 8.26073 17.782 8.47622 17.8571 8.62646C17.8947 8.70156 17.9225 8.76032 17.9409 8.80001ZM10.1054 11.05C9.66036 11.05 9.22534 10.918 8.85533 10.6708C8.48532 10.4236 8.19693 10.0722 8.02664 9.66104C7.85634 9.2499 7.81178 8.7975 7.8986 8.36105C7.98542 7.92459 8.19971 7.52368 8.51438 7.20901C8.82904 6.89434 9.22995 6.68005 9.66641 6.59323C10.1029 6.50642 10.5553 6.55097 10.9664 6.72127C11.3775 6.89157 11.7289 7.17996 11.9762 7.54997C12.2234 7.91998 12.3554 8.35499 12.3554 8.8C12.3554 9.39674 12.1183 9.96903 11.6964 10.391C11.2744 10.8129 10.7021 11.05 10.1054 11.05ZM8.02198 11.918C8.63866 12.3301 9.36369 12.55 10.1054 12.55C11.0999 12.55 12.0538 12.1549 12.757 11.4516C13.4603 10.7484 13.8554 9.79456 13.8554 8.8C13.8554 8.05832 13.6354 7.3333 13.2234 6.71661C12.8113 6.09993 12.2257 5.61928 11.5404 5.33545C10.8552 5.05162 10.1012 4.97736 9.37378 5.12206C8.64635 5.26675 7.97816 5.6239 7.45371 6.14835C6.92927 6.6728 6.57212 7.34098 6.42742 8.06841C6.28273 8.79584 6.35699 9.54984 6.64082 10.2351C6.92465 10.9203 7.40529 11.506 8.02198 11.918Z" fill="black" stroke="black" stroke-width="0.3" />
  <path d="M10.3057 10.4C11.4102 10.4 12.3057 9.50459 12.3057 8.40002C12.3057 7.29545 11.4102 6.40002 10.3057 6.40002C9.20109 6.40002 8.30566 7.29545 8.30566 8.40002C8.30566 9.50459 9.20109 10.4 10.3057 10.4Z" fill="white" />
  <path fill-rule="evenodd" clip-rule="evenodd" d="M13.1059 8.4001C13.1059 9.9465 11.8523 11.2001 10.3059 11.2001C8.75946 11.2001 7.50586 9.9465 7.50586 8.4001C7.50586 6.8537 8.75946 5.6001 10.3059 5.6001C11.8523 5.6001 13.1059 6.8537 13.1059 8.4001ZM12.3059 8.4001C12.3059 9.50467 11.4104 10.4001 10.3059 10.4001C9.20129 10.4001 8.30586 9.50467 8.30586 8.4001C8.30586 7.29553 9.20129 6.4001 10.3059 6.4001C11.4104 6.4001 12.3059 7.29553 12.3059 8.4001Z" fill="black" />
  <rect x="3.39941" y="0.400024" width="20.8" height="1.6" transform="rotate(43.1309 3.39941 0.400024)" fill="black" />
</svg>