<svg width="100%" height="100%" viewBox="0 0 21 16" fill="none" xmlns="http://www.w3.org/2000/svg">
  <path d="M10.3057 11.9998C9.59365 11.9998 8.89763 11.7887 8.30561 11.3931C7.71359 10.9975 7.25217 10.4353 6.9797 9.77747C6.70722 9.11965 6.63593 8.39581 6.77484 7.69748C6.91374 6.99915 7.25661 6.35769 7.76008 5.85422C8.26355 5.35075 8.90501 5.00788 9.60334 4.86898C10.3017 4.73007 11.0255 4.80136 11.6833 5.07384C12.3411 5.34631 12.9034 5.80773 13.299 6.39975C13.6945 6.99177 13.9057 7.68779 13.9057 8.3998C13.9057 9.35458 13.5264 10.2703 12.8512 10.9454C12.1761 11.6205 11.2604 11.9998 10.3057 11.9998V11.9998ZM10.3057 2.7998C4.70566 2.7998 2.30566 8.3998 2.30566 8.3998C2.30566 8.3998 4.70566 13.9998 10.3057 13.9998C15.9057 13.9998 18.3057 8.3998 18.3057 8.3998C18.3057 8.3998 15.9057 2.7998 10.3057 2.7998Z" fill="white" />
  <path d="M1.06468 7.86829L0.862128 8.34089L0.836805 8.39998L0.862128 8.45906L1.06468 8.93166L1.06472 8.93177L1.06517 8.93283L1.06521 8.93291L1.06568 8.93402L1.06576 8.93421L1.1238 9.06964L1.12669 9.0684C1.14912 9.11611 1.17757 9.17518 1.21215 9.24434C1.30173 9.42349 1.43303 9.67151 1.60802 9.96548C1.95646 10.5509 2.48645 11.3326 3.21629 12.1186C4.6751 13.6896 7.00848 15.35 10.3056 15.35C13.6026 15.35 15.936 13.6896 17.3948 12.1186C18.1247 11.3326 18.6547 10.5509 19.0031 9.96548C19.1781 9.6715 19.3094 9.42349 19.399 9.24434C19.4336 9.17518 19.462 9.11611 19.4844 9.0684L19.4873 9.06964L19.5441 8.93714L19.5442 8.9368L19.5458 8.9331L19.546 8.93277L19.5464 8.93177L19.5465 8.9316L19.749 8.45906L19.7743 8.39998L19.749 8.34089L19.5465 7.86835L19.5464 7.86818L19.546 7.86718L19.5458 7.86686L19.5442 7.86315L19.5441 7.86281L19.4873 7.73031L19.4844 7.73155C19.462 7.68384 19.4336 7.62477 19.399 7.55561C19.3094 7.37646 19.1781 7.12844 19.0031 6.83447C18.6547 6.24908 18.1247 5.46735 17.3948 4.68137C15.936 3.11034 13.6026 1.44998 10.3056 1.44998C7.00848 1.44998 4.6751 3.11034 3.21629 4.68137C2.48645 5.46735 1.95646 6.24908 1.60802 6.83447C1.43303 7.12844 1.30173 7.37646 1.21215 7.55561C1.17757 7.62477 1.14912 7.68384 1.12669 7.73155L1.1238 7.73031L1.06576 7.86575L1.06568 7.86593L1.06521 7.86704L1.06517 7.86712L1.06472 7.86818L1.06468 7.86829ZM18.0573 8.22643C18.0949 8.30154 18.1227 8.3603 18.1411 8.39998C18.1227 8.43965 18.0949 8.49841 18.0573 8.57352C17.9822 8.72375 17.8683 8.93925 17.7142 9.19825C17.4057 9.71654 16.9368 10.4075 16.2956 11.0979C15.0133 12.4789 13.0503 13.85 10.3056 13.85C7.56078 13.85 5.59783 12.4789 4.31548 11.0979C3.67435 10.4075 3.20546 9.71654 2.89696 9.19825C2.74279 8.93925 2.6289 8.72375 2.55379 8.57352C2.51624 8.49842 2.48839 8.43966 2.47006 8.39998C2.48839 8.36029 2.51624 8.30153 2.55379 8.22643C2.6289 8.0762 2.74279 7.8607 2.89696 7.6017C3.20546 7.08341 3.67435 6.39249 4.31548 5.70204C5.59783 4.32105 7.56078 2.94998 10.3056 2.94998C13.0503 2.94998 15.0133 4.32105 16.2956 5.70204C16.9368 6.39249 17.4057 7.08341 17.7142 7.6017C17.8683 7.8607 17.9822 8.0762 18.0573 8.22643ZM10.3056 10.65C9.86055 10.65 9.42554 10.518 9.05553 10.2708C8.68552 10.0235 8.39713 9.67215 8.22683 9.26101C8.05654 8.84988 8.01198 8.39748 8.09879 7.96102C8.18561 7.52456 8.3999 7.12365 8.71457 6.80899C9.02924 6.49432 9.43015 6.28003 9.86661 6.19321C10.3031 6.10639 10.7555 6.15095 11.1666 6.32125C11.5777 6.49154 11.9291 6.77993 12.1764 7.14994C12.4236 7.51995 12.5556 7.95497 12.5556 8.39998C12.5556 8.99671 12.3185 9.56901 11.8966 9.99096C11.4746 10.4129 10.9023 10.65 10.3056 10.65ZM8.22217 11.518C8.83886 11.93 9.56388 12.15 10.3056 12.15C11.3001 12.15 12.254 11.7549 12.9572 11.0516C13.6605 10.3484 14.0556 9.39454 14.0556 8.39998C14.0556 7.6583 13.8356 6.93327 13.4236 6.31659C13.0115 5.6999 12.4258 5.21926 11.7406 4.93543C11.0554 4.6516 10.3014 4.57734 9.57397 4.72203C8.84654 4.86673 8.17836 5.22388 7.65391 5.74832C7.12946 6.27277 6.77231 6.94096 6.62762 7.66839C6.48292 8.39581 6.55718 9.14982 6.84101 9.83504C7.12484 10.5203 7.60549 11.1059 8.22217 11.518Z" fill="black" stroke="black" stroke-width="0.3" />
  <path d="M10.3057 10.4C11.4102 10.4 12.3057 9.50459 12.3057 8.40002C12.3057 7.29545 11.4102 6.40002 10.3057 6.40002C9.20109 6.40002 8.30566 7.29545 8.30566 8.40002C8.30566 9.50459 9.20109 10.4 10.3057 10.4Z" fill="white" />
  <path fill-rule="evenodd" clip-rule="evenodd" d="M13.1059 8.4001C13.1059 9.9465 11.8523 11.2001 10.3059 11.2001C8.75946 11.2001 7.50586 9.9465 7.50586 8.4001C7.50586 6.8537 8.75946 5.6001 10.3059 5.6001C11.8523 5.6001 13.1059 6.8537 13.1059 8.4001ZM12.3059 8.4001C12.3059 9.50467 11.4104 10.4001 10.3059 10.4001C9.20129 10.4001 8.30586 9.50467 8.30586 8.4001C8.30586 7.29553 9.20129 6.4001 10.3059 6.4001C11.4104 6.4001 12.3059 7.29553 12.3059 8.4001Z" fill="black" />
</svg>