<svg width="10" height="11" viewBox="0 0 10 11" fill="none" xmlns="http://www.w3.org/2000/svg">
<g clip-path="url(#clip0_594_45285)">
<path d="M4.06828 4.02149V5.88328C3.90856 5.88328 3.76659 5.88328 3.62462 5.88328C2.65479 5.9106 1.93872 6.61741 1.95736 7.52739C1.96171 7.95551 2.14267 8.36443 2.46041 8.6642C2.77816 8.96397 3.20667 9.13002 3.65168 9.12583C4.09669 9.12164 4.52174 8.94756 4.83333 8.64187C5.14492 8.33618 5.31753 7.92393 5.31318 7.49581C5.32205 5.16281 5.31318 2.82981 5.31318 0.495962V-0.00170898H7.25284C7.3602 1.64069 8.27857 2.50287 10.0035 2.56945V4.36892C9.22178 4.64977 8.31051 4.3749 7.31761 3.54772C7.30178 3.64273 7.29112 3.73847 7.28567 3.83455C7.28035 5.07147 7.27946 6.3101 7.27325 7.54703C7.26526 9.33967 5.83314 10.819 3.94494 10.9846C3.46001 11.0253 2.97153 10.9721 2.50832 10.8282C2.04511 10.6843 1.61654 10.4526 1.24788 10.1468C0.879216 9.84104 0.577937 9.46733 0.3618 9.04773C0.145663 8.62814 0.0190514 8.17115 -0.0105741 7.70373C-0.0401997 7.23631 0.0277545 6.76791 0.189298 6.32617C0.350842 5.88442 0.602696 5.47826 0.930007 5.13165C1.25732 4.78504 1.65346 4.50499 2.09507 4.30802C2.53668 4.11105 3.01482 4.00114 3.50128 3.98479C3.69081 3.98766 3.88006 3.99991 4.06828 4.02149V4.02149Z" fill="white"/>
</g>
<defs>
<clipPath id="clip0_594_45285">
<rect width="10" height="11" fill="white"/>
</clipPath>
</defs>
</svg>

