<svg width="100%" height="100%" xmlns="http://www.w3.org/2000/svg" viewBox="0 0 40.7 46.2">
  <ellipse cx="20.4" cy="25.4" rx="19.2" ry="20.2" opacity=".25" />
  <ellipse cx="20.4" cy="22.5" rx="19.2" ry="19.4" />
  <circle cx="20.3" cy="20.5" r="18.5" fill="#3a4159" />
  <path d="M20.3 40.3A19.89 19.89 0 0 1 .4 20.4C.4 9.4 9.4.6 20.3.6s19.9 8.9 19.9 19.9-8.9 19.8-19.9 19.8zm0-37C10.9 3.3 3.2 11 3.2 20.5s7.7 17.2 17.2 17.2S37.6 30 37.6 20.5C37.5 11 29.8 3.3 20.3 3.3z" fill="#070707" />
  <linearGradient id="A" gradientUnits="userSpaceOnUse" x1="20.305" y1="2.675" x2="20.305" y2="38.463">
    <stop offset="0" stop-color="#4c5673" />
    <stop offset="1" stop-color="#36324d" />
  </linearGradient>
  <path d="M20.3 4.4c8.9 0 16.1 7.2 16.1 16.1s-7.2 16.1-16.1 16.1-16.1-7.1-16.1-16S11.4 4.4 20.3 4.4m0-1.7c-9.9 0-17.9 8-17.9 17.9s8 17.9 17.9 17.9 17.9-8 17.9-17.9-8-17.9-17.9-17.9h0z" fill="url(#A)" />
  <g fill="#fff">
    <ellipse cx="21.5" cy="13.3" rx="5" ry="4.4" />
    <path d="M13.9 30.4l10.2 1.2 1.4-13-9-.8z" />
  </g>
  <path d="M24.1 17.9c1.8-.9 3.1-2.6 3.1-4.6 0-2.9-2.5-5.2-5.7-5.2-3.1 0-5.7 2.3-5.7 5.2 0 1.7.9 3.1 2.2 4.1l-.8-.1-1.4-.3-.3 1.3-2.2 11.2-.3 1.6 1.6.2 8.6 1 1.5.2.2-1.5 1.2-11.5.2-1.5-1.5-.1h-.7zm-6.8-4.7c0-2 1.9-3.7 4.2-3.7s4.2 1.7 4.2 3.7-1.9 3.7-4.2 3.7-4.2-1.7-4.2-3.7zm6.1 17.5l-8.6-1 2.3-11.1 7.6.7-1.3 11.4z" />
</svg>