<svg width="100%" height="100%" xmlns="http://www.w3.org/2000/svg" viewBox="0 0 62 68">
  <circle cx="31" cy="37" r="30.5" opacity=".25" />
  <ellipse cx="31" cy="32.4" rx="30.5" ry="32.1" />
  <circle cx="31.1" cy="31.1" r="28.7" fill="#2071ff" />
  <path d="M31 61.8C14.1 61.8.3 48 .3 31.1S14.1.4 31 .4s30.7 13.8 30.7 30.7S47.9 61.8 31 61.8zm0-57.4c-14.7 0-26.7 12-26.7 26.7s12 26.7 26.7 26.7 26.7-12 26.7-26.7S45.7 4.4 31 4.4z" fill="#070707" />
  <linearGradient id="A" gradientUnits="userSpaceOnUse" x1="31.003" y1="2.432" x2="31.003" y2="59.832">
    <stop offset="0" stop-color="#1992fe" />
    <stop offset="1" stop-color="#0b57f2" />
  </linearGradient>
  <path d="M31,5.3c14.3,0,25.9,11.6,25.9,25.9S45.3,57,31,57S5.1,45.4,5.1,31.1S16.7,5.3,31,5.3 M31,2.4     C15.2,2.4,2.3,15.3,2.3,31.1S15.2,59.8,31,59.8S59.7,47,59.7,31.1S46.9,2.4,31,2.4L31,2.4z" fill="url(#A)" />
  <path d="M37.1 18.4c0-.1 0-.1 0 0v-.1c0-.1 0-.2-.1-.3-.1-.2-.1-.3-.2-.4l-4.3-5.1h0c-.1-.2-.3-.3-.5-.4-.4-.2-.8-.2-1.2 0-.2.1-.4.2-.5.4L26 17.6a1.08 1.08 0 0 0-.3.7v.1.9c0 .3 0 .6.2.8.1.2.3.5.5.6s.5.2.8.2h.3v4.3h8v-1h0v-3.3h.3c.3 0 .5-.1.8-.2.2-.1.4-.4.5-.6s.1-.5.1-.8c-.1-.2-.1-.6-.1-.9z" />
  <path d="M32 13.1c-.1-.1-.2-.1-.3-.2-.1 0-.2-.1-.3-.1s-.2 0-.3.1c-.1 0-.2.1-.3.2l-4.1 4.8c-.1.1-.1.2-.2.4 0 .1 0 .3.1.4l.3.3c.1.1.3.1.4.1h.9v4.1h6.3v-4.1h.9c.1 0 .3 0 .4-.1l.3-.3c.1-.1.1-.3.1-.4a.76.76 0 0 0-.2-.4l-4-4.8z" fill-rule="evenodd" fill="#fff" />
  <path d="M25.6 43.9v.1c0 .1 0 .2.1.3.1.2.1.3.2.4l4.3 5.1h0c.1.2.3.3.5.4.4.2.8.2 1.2 0 .2-.1.4-.2.5-.4l4.3-5.1a1.08 1.08 0 0 0 .3-.7v-.1-.9c0-.3 0-.6-.2-.8-.1-.2-.3-.5-.5-.6s-.5-.2-.8-.2h-.3V37h-8v1h0v3.3h-.3c-.3 0-.5.1-.8.2-.2.1-.4.4-.5.6s-.1.5-.1.8c.2.2.1.7.1 1z" />
  <path d="M30.7 48c.1.1.2.1.3.2.1 0 .2.1.3.1s.2 0 .3-.1c.1 0 .2-.1.3-.2l4.1-4.8c.1-.1.1-.2.2-.4 0-.1 0-.3-.1-.4l-.3-.3c-.1-.1-.3-.1-.4-.1h-.9v-4.1h-6.3V42h-.9c-.1 0-.3 0-.4.1l-.3.3c-.1.1-.1.3-.1.4a.76.76 0 0 0 .2.4l4 4.8z" fill-rule="evenodd" fill="#fff" />
  <path d="M20.1 26.7v-.3c0-.3-.1-.5-.2-.8-.1-.2-.4-.4-.6-.5-.3-.1-.6-.2-.9-.1-.3 0-.5.1-.7.3l-5.1 4.3h0c-.2.1-.3.3-.4.5s-.1.4-.1.6v.4.5c0 .2 0 .4.1.6s.2.4.4.5l5.1 4.3a1.08 1.08 0 0 0 .7.3h.2c.2 0 .4 0 .6-.1s.5-.3.6-.5.2-.5.2-.8v-.3h4.3v-.9-7.1-.9h-4.2zM18.8 35h0-.2m.1-7.8l.1-.2m.1-1.1l.1-.2-.1.2z" />
  <path d="M13 30.1c-.1.1-.2.2-.2.3s-.1.2-.1.3 0 .2.1.3c0 .1.1.2.2.3l5.1 4.3a.76.76 0 0 0 .4.2c.1 0 .3 0 .4-.1l.3-.3c.1-.1.1-.3.1-.4v-1h4.3v-6.7h-4.3v-.9c0-.1 0-.3-.1-.4l-.3-.3c-.1-.1-.3-.1-.4-.1a.76.76 0 0 0-.4.2L13 30.1z" fill-rule="evenodd" fill="#fff" />
  <path d="M38.3 26.7v.9 7.1.9h4.3v.3c0 .3.1.5.2.8.1.2.4.4.6.5s.4.1.6.1h.2c.3 0 .5-.1.7-.3l5.1-4.3c.2-.1.3-.3.4-.5s.1-.4.1-.6v-.5-.4c0-.2 0-.4-.1-.6s-.2-.4-.4-.5h0l-5-4.3a1.08 1.08 0 0 0-.7-.3c-.3 0-.5 0-.8.1-.2.1-.5.3-.6.5s-.2.5-.2.8v.3h-4.4zm5.9 8.3h-.1-.1m0-8l.1.2m-.3-1.5l.1.2-.1-.2z" />
  <path d="M49.7 30.1c.1.1.2.2.2.3s.1.2.1.3 0 .2-.1.3c0 .1-.1.2-.2.3l-5.1 4.3a.76.76 0 0 1-.4.2c-.1 0-.3 0-.4-.1l-.3-.3c-.1-.1-.1-.3-.1-.4v-1H39v-6.7h4.3v-.9c0-.1 0-.3.1-.4l.3-.3c.1-.1.3-.1.4-.1a.76.76 0 0 1 .4.2l5.2 4.3z" fill-rule="evenodd" fill="#fff" />
</svg>