<svg width="100%" height="100%" xmlns="http://www.w3.org/2000/svg" viewBox="0 0 62 68">
  <circle cx="31" cy="37" r="30.5" opacity=".25" />
  <ellipse cx="31" cy="32.4" rx="30.5" ry="32.1" />
  <circle cx="31" cy="31.1" r="28.7" fill="#2071ff" stroke="#070707" stroke-width="4" />
  <linearGradient id="A" gradientUnits="userSpaceOnUse" x1="31.003" y1="2.432" x2="31.003" y2="59.832">
    <stop offset="0" stop-color="#1992fe" />
    <stop offset="1" stop-color="#0b57f2" />
  </linearGradient>
  <path d="M31,5.3c14.3,0,25.9,11.6,25.9,25.9S45.3,57,31,57S5.1,45.4,5.1,31.1S16.7,5.3,31,5.3 M31,2.4    C15.2,2.4,2.3,15.3,2.3,31.1S15.2,59.8,31,59.8S59.7,47,59.7,31.1S46.9,2.4,31,2.4L31,2.4z" fill="url(#A)" />
  <path d="M47.8 32.8v-2.1c0-2.4-2-4.4-4.4-4.4h-11c-2.4 0-4.4 2-4.4 4.4v11 .2 1.4a3.8 3.8 0 0 0 3.8 3.8H44a3.8 3.8 0 0 0 3.8-3.8V32.8z" />
  <path d="M32.4 45.7h11a3.76 3.76 0 0 0 3.7-3.7V31a3.76 3.76 0 0 0-3.7-3.7h-11a3.76 3.76 0 0 0-3.7 3.7v11c0 2 1.6 3.7 3.7 3.7z" fill="#fff" />
  <circle cx="37.9" cy="36.2" r="2.1" />
  <path d="M36.5 25.8l-.7-.9s0-.1-.1-.1l-6.5-8.9c-1.4-2-4.2-2.4-6.2-1l-8.9 6.5c-2 1.4-2.4 4.2-1 6.2v.1c.1.3.2.5.4.7l6.7 9.2c1.3 1.8 3.7 2.2 5.5.9l9.8-7.1c1.8-1.4 2.2-3.8 1-5.6z" />
  <path d="M13.8 27.2l6.5 8.9c1.2 1.7 3.5 2 5.1.8l8.9-6.5c1.7-1.2 2-3.5.8-5.1l-6.5-8.9c-1.2-1.7-3.5-2-5.1-.8L14.6 22a3.78 3.78 0 0 0-.8 5.2z" fill="#fff" />
  <circle cx="24.4" cy="26.1" r="2.1" />
  <circle cx="25.5" cy="19.5" r="2.1" />
  <circle cx="31.1" cy="27.2" r="2.1" />
  <circle cx="17.8" cy="25.1" r="2.1" />
  <circle cx="23.3" cy="32.8" r="2.1" />
</svg>