<svg width="100%" height="100%" xmlns="http://www.w3.org/2000/svg" viewBox="0 0 62 68">
  <circle cx="31" cy="37" r="30.5" opacity=".25" />
  <ellipse cx="31" cy="32.4" rx="30.5" ry="32.1" />
  <circle cx="31" cy="31.1" r="28.7" fill="#2071ff" stroke="#070707" stroke-width="4" />
  <linearGradient id="A" gradientUnits="userSpaceOnUse" x1="31.003" y1="2.432" x2="31.003" y2="59.832">
    <stop offset="0" stop-color="#1992fe" />
    <stop offset="1" stop-color="#0b57f2" />
  </linearGradient>
  <path d="M31,5.3c14.3,0,25.9,11.6,25.9,25.9S45.3,57,31,57S5.1,45.4,5.1,31.1S16.7,5.3,31,5.3 M31,2.4    C15.2,2.4,2.3,15.3,2.3,31.1S15.2,59.8,31,59.8S59.7,47,59.7,31.1S46.9,2.4,31,2.4L31,2.4z" fill="url(#A)" />
  <path d="M32.6 15.9c-.3-.3-.7-.5-1.1-.6h-.4-.8c-.4 0-.8.1-1.2.1H29a1.27 1.27 0 0 0-.9.7c-.2.3-.3.7-.3 1.2v1l.6 2.9c.1.4.3.8.7 1 .3.2.6.3.9.3h.2 1c.4 0 .8-.2 1.2-.5.3-.3.5-.7.5-1.1L33 18v-1c0-.4-.1-.8-.4-1.1zm7.1 4.3c0-.2.1-1.4 0-1.6 0-.2-.1-.4-.2-.6s-.3-.3-.5-.4c-.7-.5-1.5-.8-2.3-1.2-.4-.1-.8-.1-1.2.1s-.7.5-.8.9l-.9 2.8c-.1.3-.1 1.8.1 2.2s.5.7.8.8.5.3.8.4c.3.2.6.2.9.2h.3c.4-.1.8-.3 1-.7l1.6-2.3c.3-.2.3-.4.4-.6zm4.7 3.1h0c-.4-.8-.9-1.5-1.4-2.1-.3-.3-.7-.5-1.1-.5a1.92 1.92 0 0 0-1.2.4l-2.1 2c-.3.3-.5.7-.5 1.1v1c0 .4.1.8.3 1.1.2.2.3.5.5.8.2.4.6.6.9.7.2.1.3.1.5.1s.5-.1.7-.2l2.6-1.2c.4-.2.7-.5.8-.9s.1-1.9 0-2.3zm1.8 7.3v-1.3c0-.4-.2-.7-.5-1s-.6-.4-1-.4l-2.9-.1c-.2 0-.5 0-.7.1s-.4.2-.6.4-.3.4-.4.6-.1.5-.1.6v1c0 2.4-.9 4.7-2.6 6.4s-3.9 2.7-6.3 2.7-4.6-.9-6.3-2.7c-1.5-1.6-2.4-3.6-2.6-5.8 0-.8.1-1.6.4-2.4l1.2 1.1c.2.2.5.3.8.3s.6 0 .8-.1a.9.9 0 0 0 .6-.6c.1-.2.2-.5.2-.8V21v-1c0-.2 0-.4-.1-.6s-.2-.4-.4-.5-.3-.2-.5-.3-.4-.1-.7-.1L17 19.9c-.3.1-.5.2-.8.4-.2.2-.4.4-.4.7-.1.3-.1 1.6 0 1.8.1.3.2.5.5.7l1.1 1a16.33 16.33 0 0 0-1.2 5.4v.8.2c-.1 2.3.3 4.6 1.2 6.7s2.3 4 4 5.5a13.81 13.81 0 0 0 6 3.1c1.2.3 2.5.5 3.7.5 1 0 2-.1 3-.3 2.2-.5 4.3-1.4 6.1-2.8s3.3-3.2 4.3-5.3 1.5-4.3 1.6-6.6v-1.1h.1z" />
  <path d="M38.7 24.1c0 .3.1.5.2.7.2.3.4.5.5.8.1.2.3.4.6.5.2.1.5.1.7 0l2.6-1.2c.2-.1.4-.3.5-.5s.1-.5 0-.7c-.4-.7-.8-1.4-1.3-2-.2-.2-.4-.3-.6-.3s-.5.1-.7.2L39 23.4a1.08 1.08 0 0 0-.3.7zM35 21.6c.3.1.6.3.8.4s.5.2.7.1c.3-.1.5-.2.6-.4l1.6-2.4c.1-.1.1-.2.2-.3v-.4c0-.1-.1-.2-.1-.3l-.3-.3-2.1-1.1c-.2-.1-.5-.1-.7.1-.2.1-.4.3-.5.5l-.9 2.8c-.1.2-.1.5.1.8.2.2.4.4.6.5zm10.2 7.1c-.2-.2-.4-.2-.6-.3l-2.9-.1c-.2 0-.3 0-.4.1s-.3.2-.4.3-.2.2-.2.4c0 .1-.1.3 0 .5v1c0 2.6-1 5.1-2.8 6.9s-4.2 2.9-6.8 2.9-5-1-6.8-2.9c-1.8-1.8-2.8-4.3-2.8-6.9 0-1.3.3-2.7.8-3.9l1.9 1.7a.76.76 0 0 0 .4.2c.2 0 .3 0 .5-.1a1.38 1.38 0 0 0 .4-.3c.1-.1.1-.3.1-.5v-7.6c0-.1 0-.2-.1-.4 0-.1-.1-.2-.2-.3s-.2-.1-.3-.2h-.4l-7.5 1.4c-.2 0-.3.1-.4.2a.76.76 0 0 0-.2.4v.5c0 .2.1.3.3.4l1.8 1.6c-1 1.9-1.6 4.1-1.7 6.3s.3 4.4 1.2 6.4 2.2 3.8 3.8 5.2c1.7 1.4 3.6 2.5 5.7 3s4.3.6 6.4.2 4.1-1.4 5.8-2.7 3.1-3.1 4.1-5c1-2 1.5-4.1 1.5-6.4v-1.3c.1-.3 0-.5-.2-.7zm-15.7-8.1c.2.1.5.2.7.2h.5.5c.3 0 .5-.1.7-.3s.3-.4.3-.7l.2-2.8c0-.3-.1-.5-.2-.7-.2-.2-.4-.3-.7-.3h-1.2c-.4 0-.8 0-1.2.1-.2 0-.4.2-.5.4s-.2.4-.2.7L29 20c.1.3.3.5.5.6z" fill="#fff" />
</svg>