<?xml version="1.0" encoding="utf-8"?>
<!-- Generator: Adobe Illustrator 26.5.0, SVG Export Plug-In . SVG Version: 6.00 Build 0)  -->
<svg version="1.1" id="Layer_1" xmlns="http://www.w3.org/2000/svg" xmlns:xlink="http://www.w3.org/1999/xlink" x="0px" y="0px"
	 viewBox="0 0 975.1 1067.2" style="enable-background:new 0 0 975.1 1067.2;" xml:space="preserve">
<style type="text/css">
	.st0{opacity:0.25;enable-background:new    ;}
	.st1{fill:#2071FF;}
	.st2{fill:none;stroke:#070707;stroke-width:63.5294;stroke-miterlimit:63.5294;}
	.st3{fill:url(#SVGID_1_);}
	.st4{fill-rule:evenodd;clip-rule:evenodd;fill:#FFFFFF;}
</style>
<circle class="st0" cx="487.6" cy="582.8" r="484.4"/>
<ellipse cx="487.6" cy="509.8" rx="484.4" ry="509.8"/>
<g>
	<circle class="st1" cx="487.6" cy="489.1" r="455.8"/>
	<circle class="st2" cx="487.6" cy="489.1" r="455.8"/>
</g>
<linearGradient id="SVGID_1_" gradientUnits="userSpaceOnUse" x1="-441.4354" y1="-2.398" x2="-441.4354" y2="55.0052" gradientTransform="matrix(15.8824 0 0 15.8824 7498.6182 71.3852)">
	<stop  offset="0" style="stop-color:#1992FE"/>
	<stop  offset="1" style="stop-color:#0B57F2"/>
</linearGradient>
<path class="st3" d="M487.6,79.4C714.7,79.4,899,263.6,899,490.8S714.7,900.5,487.6,900.5S76.2,716.3,76.2,489.1
	S260.5,79.4,487.6,79.4 M487.6,33.3c-250.9,0-455.8,204.9-455.8,455.8S236.7,945,487.6,945s455.8-203.3,455.8-455.8
	S740.1,33.3,487.6,33.3L487.6,33.3z"/>
<g>
	<g>
		<path d="M701,308.6c-1.4-3.6-2.7-6.5-5.5-9.3s-6.1-4.9-9.7-6.2c-3.1-1.2-6.3-1.8-9.6-1.8c-0.6,0-1.2,0-1.8,0.1l0,0l0,0l-114,8.4
			c-5.1,0.3-14.2-10.2-18.2-7.1c-3.4,5.2-6.1-0.2-7.2,23.7c-0.2,4.5,0.6,10.9,1.7,15.9c1.1,5,3.6,9.4,7.1,13l11.6,11.6L338.1,574.1
			l-11.4-11.4c-3.6-3.6-8.2-6.1-13-7.2c-1.9-0.5-4-0.7-6.1-0.7c-3.1,0-6.1,0.5-8.8,1.5c-4.9,1.7-9.1,4.8-12.1,8.8
			c-3.1,4.1-6.3,8.4-6.7,13.5l1.4,0.6l0,0l-9.6,103.6c-0.5,5.9,1.6,18,2.9,21.6c1.4,3.6,3.5,7,6.2,9.9c2.8,2.8,6.1,5,9.9,6.2
			c2.9,1.1,6.1,1.7,9.4,1.7c0.7,0,1.4,0,2.2-0.1l113.8-8.3l0,0l0,0c5.1-0.3,10-2.3,14-5.3c4.1-3.1,7.1-7.2,8.8-12.1
			c1.7-4.8,1.4-9.4,1.7-15.3c0.1-6.5,0.5-10.9-0.1-16.2l-19.6-8l217.3-217.3l11.4,11.4c3.6,3.6,8.2,6.1,13,7.2
			c1.9,0.5,4,0.7,6.1,0.7c3.1,0,6.1-0.5,8.8-1.5c4.9-1.7,9.1-4.8,12.1-8.8c3.1-4,5-8.9,5.3-14l6.9-114.1l-1-4.2l0.8-1.5
			C702,311.2,702.5,312.2,701,308.6z"/>
	</g>
	<g>
		<path d="M701.9,287.5c-1.4-3.6-3.4-6.9-6.2-9.7s-6.1-4.9-9.7-6.2c-3.1-1.2-6.3-1.8-9.6-1.8c-0.6,0-1.2,0-1.8,0.1l0,0l0,0l-114,8.4
			c-5.1,0.3-10.1,2.3-14,5.3c-4.1,3.1-7.1,7.2-8.8,12.1c-1.7,4.8-1.9,10-0.8,14.9c1.1,5,3.6,9.4,7.1,13l11.6,11.6L338.2,552.5
			l-11.4-11.4c-3.6-3.6-8.2-6.1-13-7.2c-1.9-0.5-4-0.7-6.1-0.7c-3.1,0-6.1,0.5-8.8,1.5c-4.9,1.7-9.1,4.8-12.1,8.8
			c-3.1,4.1-5,8.9-5.3,14l0,0l0,0l-8.3,113.8c-0.2,4,0.2,7.8,1.6,11.4s3.5,7,6.2,9.9c2.8,2.8,6.1,5,9.9,6.2c2.9,1.1,6.1,1.7,9.4,1.7
			c0.7,0,1.4,0,2.2-0.1l113.8-8.3l0,0l0,0c5.1-0.3,10-2.3,14-5.3c4.1-3.1,7.1-7.2,8.8-12.1c1.7-4.8,1.9-10,0.8-14.9
			c-1.1-5-3.6-9.4-7.1-13l-11.6-11.6l217.2-217.3l11.4,11.4c3.6,3.6,8.2,6.1,13,7.2c1.9,0.5,4,0.7,6.1,0.7c3.1,0,6.1-0.5,8.8-1.5
			c4.9-1.7,9.1-4.8,12.1-8.8c3.1-4,5-8.9,5.3-14l8.4-114.1l0,0l0,0C703.9,295.1,703.2,291.2,701.9,287.5z"/>
	</g>
	<path class="st4" d="M574.3,335.4l-20.9-20.9c-1.8-1.8-3.1-4.2-3.7-6.6c-0.6-2.5-0.5-5.1,0.3-7.6c0.8-2.4,2.4-4.5,4.4-6.1
		c2-1.5,4.4-2.4,7-2.6l114-8.4c1.9-0.1,4,0.2,5.8,0.8c1.8,0.8,3.5,1.8,5,3.2c1.5,1.5,2.6,3.2,3.4,5s1,3.9,0.8,5.8L682,412
		c-0.2,2.5-1.1,5-2.6,7c-1.5,2-3.6,3.5-6.1,4.4c-2.4,0.8-5,1-7.6,0.3c-2.5-0.6-4.9-1.8-6.6-3.7l-20.9-20.9L401.9,635.4l20.9,20.9
		c1.8,1.8,3.1,4.2,3.7,6.6c0.6,2.5,0.5,5.1-0.3,7.6c-0.8,2.4-2.4,4.5-4.4,6.1c-2,1.5-4.5,2.4-7,2.6l-113.9,8.2
		c-1.9,0.2-4-0.1-5.9-0.8c-1.8-0.7-3.5-1.8-5-3.2c-1.5-1.4-2.5-3.2-3.2-5c-0.7-1.8-0.9-3.9-0.8-5.9l8.4-113.8c0.2-2.5,1.1-5,2.6-7
		c1.5-2,3.6-3.5,6.1-4.4c2.4-0.8,5-1,7.5-0.3c2.5,0.6,4.9,1.8,6.6,3.6l20.9,20.9"/>
</g>
</svg>
