<svg width="100%" height="100%" xmlns="http://www.w3.org/2000/svg" viewBox="0 0 62 68">
  <circle cx="31" cy="37" r="30.5" opacity=".25" />
  <ellipse cx="31" cy="32.4" rx="30.5" ry="32.1" />
  <circle cx="31" cy="31.1" r="28.7" fill="#2071ff" stroke="#070707" stroke-width="4" />
  <linearGradient id="A" gradientUnits="userSpaceOnUse" x1="31.003" y1="2.432" x2="31.003" y2="59.832">
    <stop offset="0" stop-color="#1992fe" />
    <stop offset="1" stop-color="#0b57f2" />
  </linearGradient>
  <path d="M31,5.3c14.3,0,25.9,11.6,25.9,25.9S45.3,57,31,57S5.1,45.4,5.1,31.1S16.7,5.3,31,5.3 M31,2.4    C15.2,2.4,2.3,15.3,2.3,31.1S15.2,59.8,31,59.8S59.7,47,59.7,31.1S46.9,2.4,31,2.4L31,2.4z" fill="url(#A)" />
  <path d="M44.5 31.7c-.6-2.2-1.7-4.3-3.3-5.9-.9-1-2-1.9-3.2-2.5a7.78 7.78 0 0 0-4-.8c-1.8.1-3.6.4-5.3 1l-1.4-3.3c-.3-.6-.8-.9-1.5-1-.8 0-1.5.6-1.9 1.4l-3.8 6.8-2.4 4.6c-.2.4-.3.7-.4 1.1v1c0 .4 0 .8.1 1.2l.1.1c.2.4.5.7.9 1 .3.2.4.3.8.4L29.7 40l2.3.6h.4c.2 0 .4-.1.6-.2s.4-.2.5-.3c.2-.2.4-.5.4-.7.1-.3.1-1.6 0-1.9l-1.1-3c1-.5 2.1-.7 3.2-.8.4 0 .8 0 1.2.2 2.3.8 3.3 2.7 4.3 5.7.1.4.3.7.6.9a1.69 1.69 0 0 0 1 .3h.1c.2 0 .3 0 .5-.1.6-.2.8-.8.9-1.2.3-1.3.5-2.6.4-3.9 0-1.3-.1-2.6-.5-3.9z" />
  <path d="M42.6 38.8c-.2 0-.4 0-.5-.1s-.2-.3-.3-.4c-1-3-2.1-5.2-4.6-6.1-.5-.2-1-.2-1.5-.2-1.3.1-2.7.5-3.8 1.1-.2.1-.3.1-.4.2l1.6 4.4v.4a.76.76 0 0 1-.2.4c-.1.1-.2.2-.3.2-.1.1-.2.1-.3.1H32l-2.2-.6-3-.9-6.8-2.1c-.6-.2-.6-.2-.9-.4s-.5-.4-.7-.7c-.1-.3-.1-.6-.1-.9s.1-.6.3-.8l2.4-4.5 3.6-6.7c.4-.9 1.5-1.4 2-.4l1.6 3.8c1.8-.7 3.7-1.1 5.6-1.2 1.2 0 2.4.2 3.5.8 1.1.5 2.1 1.3 2.9 2.2 1.5 1.5 2.5 3.4 3.1 5.5.5 2.1.5 4.2 0 6.3-.1.3-.1.6-.4.7-.1-.1-.2 0-.3-.1z" fill="#fff" />
</svg>