<svg width="42" height="46" viewBox="0 0 42 46" fill="none" xmlns="http://www.w3.org/2000/svg">
<ellipse cx="21" cy="26.3841" rx="20" ry="19.6156" fill="black" fill-opacity="0.25"/>
<ellipse cx="21" cy="23" rx="20" ry="19" fill="black"/>
<path d="M21.0909 38.3195C31.0822 38.3195 39.1818 30.2199 39.1818 20.2286C39.1818 10.2373 31.0822 2.1377 21.0909 2.1377C11.0996 2.1377 3 10.2373 3 20.2286C3 30.2199 11.0996 38.3195 21.0909 38.3195Z" fill="url(#paint0_linear_6092_52128)"/>
<path d="M21.0909 39.3195C31.6345 39.3195 40.1818 30.7722 40.1818 20.2286C40.1818 9.68499 31.6345 1.1377 21.0909 1.1377C10.5473 1.1377 2 9.68499 2 20.2286C2 30.7722 10.5473 39.3195 21.0909 39.3195Z" stroke="black" stroke-width="2.17"/>
<path d="M21.4545 36.683C30.5421 36.683 37.9091 29.3161 37.9091 20.2285C37.9091 11.1409 30.5421 3.77393 21.4545 3.77393C12.367 3.77393 5 11.1409 5 20.2285C5 29.3161 12.367 36.683 21.4545 36.683Z" fill="#3A4159"/>
<path fill-rule="evenodd" clip-rule="evenodd" d="M11 15.1538C11 11.2029 14.2029 8 18.1538 8H24.8462C28.7971 8 32 11.2029 32 15.1538V19.8462C32 23.7971 28.7971 27 24.8462 27H18.1538C14.2029 27 11 23.7971 11 19.8462V15.1538ZM12 15.1538C12 11.7552 14.7552 9 18.1538 9H24.8462C28.2448 9 31 11.7552 31 15.1538V19.8462C31 23.2448 28.2448 26 24.8462 26H18.1538C14.7552 26 12 23.2448 12 19.8462V15.1538Z" fill="black"/>
<path fill-rule="evenodd" clip-rule="evenodd" d="M11 16.1538C11 12.2029 14.2029 9 18.1538 9H24.8462C28.7971 9 32 12.2029 32 16.1538V20.8462C32 24.7971 28.7971 28 24.8462 28H18.1538C14.2029 28 11 24.7971 11 20.8462V16.1538ZM12 16.1538C12 12.7552 14.7552 10 18.1538 10H24.8462C28.2448 10 31 12.7552 31 16.1538V20.8462C31 24.2448 28.2448 27 24.8462 27H18.1538C14.7552 27 12 24.2448 12 20.8462V16.1538Z" fill="black"/>
<path fill-rule="evenodd" clip-rule="evenodd" d="M18.1538 9C14.7552 9 12 11.7552 12 15.1538V19.8462C12 23.2448 14.7552 26 18.1538 26H24.8462C28.2448 26 31 23.2448 31 19.8462V15.1538C31 11.7552 28.2448 9 24.8462 9H18.1538Z" fill="white"/>
<path fill-rule="evenodd" clip-rule="evenodd" d="M20.373 23.4456C20.9989 22.8516 21.9976 22.8515 22.6236 23.4453L27.5006 28.0704C28.6412 29.1527 27.7206 30.8322 26.361 30.8322L24.5494 30.8322L24.5494 32.2707C24.5494 33.2759 23.7091 34 22.7809 34L20.2191 34C19.2909 34 18.4506 33.2759 18.4506 32.2707L18.4506 30.8322L16.6422 30.8322C15.2827 30.8322 14.3619 29.1532 15.5021 28.0708L20.373 23.4456ZM16.1907 28.796C15.7872 29.1789 16.0722 29.8322 16.6422 29.8322L19.4506 29.8322L19.4506 32.2707C19.4506 32.6748 19.7932 33 20.2191 33L22.7809 33C23.2068 33 23.5494 32.6748 23.5494 32.2707L23.5494 29.8322L26.361 29.8322C26.931 29.8322 27.216 29.1789 26.8125 28.796L21.9355 24.1709C21.6953 23.943 21.3015 23.943 21.0613 24.1709L16.1907 28.796Z" fill="black"/>
<path fill-rule="evenodd" clip-rule="evenodd" d="M20.373 24.4456C20.9989 23.8516 21.9976 23.8515 22.6236 24.4453L27.5006 29.0704C28.6412 30.1527 27.7206 31.8322 26.361 31.8322L24.5494 31.8322L24.5494 33.2707C24.5494 34.2759 23.7091 35 22.7809 35L20.2191 35C19.2909 35 18.4506 34.2759 18.4506 33.2707L18.4506 31.8322L16.6422 31.8322C15.2827 31.8322 14.3619 30.1532 15.5021 29.0708L20.373 24.4456ZM16.1907 29.796C15.7872 30.1789 16.0722 30.8322 16.6422 30.8322L19.4506 30.8322L19.4506 33.2707C19.4506 33.6748 19.7932 34 20.2191 34L22.7809 34C23.2068 34 23.5494 33.6748 23.5494 33.2707L23.5494 30.8322L26.361 30.8322C26.931 30.8322 27.216 30.1789 26.8125 29.796L21.9355 25.1709C21.6953 24.943 21.3015 24.943 21.0613 25.1709L16.1907 29.796Z" fill="black"/>
<path d="M22.7793 33L20.2175 33C19.7916 33 19.449 32.6748 19.449 32.2707L19.449 29.8322L16.6406 29.8322C16.0706 29.8322 15.7856 29.1789 16.1891 28.796L18.6244 26.4834L21.0597 24.1709C21.2999 23.943 21.6937 23.943 21.9339 24.1709L26.8109 28.796C27.2144 29.1789 26.9294 29.8322 26.3594 29.8322L23.5478 29.8322L23.5478 32.2707C23.5478 32.6748 23.2052 33 22.7793 33Z" fill="white"/>
<path d="M17.5 13.5H19.0642V21.5H17.5V13.5Z" fill="black"/>
<path d="M25.9739 15.5936V19.4064C25.9739 19.7638 25.9413 20.0021 25.7132 20.3426C25.5177 20.6149 25.1266 21.0404 24.8659 21.2277C24.54 21.466 24.3119 21.5 23.9697 21.5H20.1406V13.5H23.9697C24.3119 13.5 24.54 13.534 24.8659 13.7723C25.1266 13.9766 25.534 14.3851 25.7132 14.6574C25.9413 14.9979 25.9739 15.2362 25.9739 15.5936ZM24.426 15.5596C24.426 15.5426 24.3445 15.4404 24.2142 15.2872C24.0675 15.134 23.9697 15.066 23.9535 15.066H21.7049V19.9511H23.9535C23.9697 19.9511 24.0675 19.866 24.2142 19.7298C24.3608 19.5766 24.426 19.4745 24.426 19.4574V15.5596Z" fill="black"/>
<defs>
<linearGradient id="paint0_linear_6092_52128" x1="21.0909" y1="2.1377" x2="21.0909" y2="38.3195" gradientUnits="userSpaceOnUse">
<stop stop-color="#4E5774"/>
<stop offset="1" stop-color="#34324B"/>
</linearGradient>
</defs>
</svg>
